<svg xmlns="http://www.w3.org/2000/svg" xmlns:xlink="http://www.w3.org/1999/xlink" width="470.751" height="375.038" viewBox="0 0 470.751 375.038"><defs><style>.a{fill:#f5f5f5;}.b,.e{fill:#ee2455;}.c{fill:none;stroke:#535461;stroke-miterlimit:10;stroke-width:2px;}.d,.f,.u,.v,.w{fill:#6c63ff;}.e,.f{opacity:0.2;}.g,.u{opacity:0.5;}.h{fill:url(#a);}.i{fill:#5a5773;}.j{fill:#605d82;}.k,.l{opacity:0.1;}.m{fill:#a1616a;}.n{fill:#e1e7ef;}.o{fill:#67647e;}.p{fill:#4a4347;}.q{fill:url(#b);}.r{fill:#fff;}.s{fill:#e0e0e0;}.t{opacity:0.05;}.v{opacity:0.4;}.w{opacity:0.3;}</style><linearGradient id="a" y1="0.5" x2="0.999" y2="0.5" gradientUnits="objectBoundingBox"><stop offset="0" stop-color="gray" stop-opacity="0.251"/><stop offset="0.54" stop-color="gray" stop-opacity="0.122"/><stop offset="1" stop-color="gray" stop-opacity="0.102"/></linearGradient><linearGradient id="b" x1="0.5" y1="1" x2="0.5" y2="0" xlink:href="#a"/></defs><g transform="translate(0.001 0.005)"><ellipse class="a" cx="171.546" cy="51.526" rx="171.546" ry="51.526" transform="translate(81.645 271.98)"/><path class="b" d="M925.221,324.92s-30.388,31.946-13.234,79.351S882.58,530.51,882.58,530.51s.49-.077,1.426-.247c62.413-11.583,93.424-86.626,58.718-142.373C929.839,367.167,919.227,342.851,925.221,324.92Z" transform="translate(-508.817 -201.857)"/><path class="c" d="M925.221,324.92s-17.155,39.16,0,71.106,2.941,121.6-42.641,134.484" transform="translate(-508.817 -201.857)"/><path class="d" d="M971.3,575.314s-34.677-5.807-37.838,26.866-66.658,37.2-66.658,37.2.411.3,1.191.835c52.444,36.192,102.58,23.053,95.027-25.006C960.189,597.342,960.415,579.4,971.3,575.314Z" transform="translate(-500.771 -323.039)"/><path class="e" d="M971.3,575.314s-34.677-5.807-37.838,26.866-66.658,37.2-66.658,37.2.411.3,1.191.835c52.444,36.192,102.58,23.053,95.027-25.006C960.189,597.342,960.415,579.4,971.3,575.314Z" transform="translate(-500.771 -323.039)"/><path class="c" d="M971.276,575.69s-26.918,6.214-24.708,31.946-39.99,56.566-79.808,32.106" transform="translate(-500.751 -323.414)"/><path class="f" d="M194.205,86.119c-3.95-.144-8,0-11.7,1.453-10.082,3.952-14.861,16.88-13.307,28.077s7.945,20.92,14.577,29.829,13.817,17.7,17.454,28.34c1.814,5.312,2.661,11.264.819,16.566-2.843,8.177-11.415,12.748-19.644,13.7s-16.493-.9-24.752-1.546c-3.465-.258-7.028-.289-10.293.907-3.583,1.3-6.568,3.962-9.312,6.735-10.709,10.872-19.282,25.712-17.895,41.293,1.568,17.663,15.557,31.627,30.878,39.114,5.073,2.484,10.44,4.493,14.9,8.038,11.763,9.347,14.4,26.861,13.234,42.324s-5.161,30.942-2.941,46.271c2.612,17.828,14.175,33.93,29.771,41.453,13.9,6.7,31.285,6.281,43.622-3.195,6.014-4.637,10.562-11.032,14.518-17.663a156.029,156.029,0,0,0,14.434-31.885c1.72-5.312,3.338-11.027,7.352-14.721a22.565,22.565,0,0,1,8.768-4.534c9.469-2.978,19.443-3.8,29-6.446s19.174-7.585,24.369-16.411c7.352-12.526,3.921-28.546,3.955-43.282.059-33.575,19.169-63.635,26.222-96.354,2.3-10.7,3.161-22.533-1.985-32.07-3.5-6.508-9.4-11.145-15.6-14.752-13.626-7.956-29.114-11.5-44.352-14.943-21.179-4.782-46.9-5.4-63.31-20.868C237.239,96.7,215.688,86.119,194.205,86.119Z" transform="translate(-120 -86.08)"/><g class="g" transform="translate(51.398 15.891)"><path class="h" d="M324.5,231.028a81.212,81.212,0,0,0-3.57-23.825l-5.885-19.184v-.948c.181-12.289-8.93-18.421-12.44-17.756-3.593.68-13.562-4.576-13.562-4.576v.144a19.617,19.617,0,0,1-1.843-2.648,16.968,16.968,0,0,0,6.409-11.17,17.452,17.452,0,0,0-3.121-12.625,7.365,7.365,0,0,0,2.367-3.339,8.848,8.848,0,0,0-1.132-7.3,14,14,0,0,0-1.961-2.458,25.118,25.118,0,0,0-3.656-3.143,27.175,27.175,0,0,0-10.783-5.153,4.276,4.276,0,0,0-2.063,0,8.427,8.427,0,0,0-1.671.948c-2.686,1.608-6.029.912-9.126.742s-6.862.742-7.842,3.8a29.192,29.192,0,0,0-.49,2.932c-.49,2.37-2.23,4.21-3.573,6.183s-2.348,4.637-1.23,6.781a5.053,5.053,0,0,1,.98,2.21,6.572,6.572,0,0,1-.49,1.69,3.671,3.671,0,0,0,1.279,3.509,5.474,5.474,0,0,0,1.47,1.18c1.554.835,3.343,1.092,4.926,1.865a8.09,8.09,0,0,1,2.147,1.546,9.132,9.132,0,0,1,2.333,6.4l.328.036v.3c.343.041.706.077,1.064.093a16.96,16.96,0,0,0,1.76,2.458q-.167.66-.377,1.34c-1.152.84-10.572,7.435-21.286,5.848-11.435-1.7-17.973,50.862-17.973,50.862a63.139,63.139,0,0,0-.618,9.079c-.049,7.729,1.495,17.844,10.1,16.354l4.573-1.582v26s.652,7.121-1.632,11.851,7.19,3.05,7.19,3.05.363.4,1.029,1.072l-.211.623.279.3a70.193,70.193,0,0,1-5.014,12.928l.27.144c-.172.345-.27.515-.27.515s3.519,1.891,8.362,4.328c3.892,13.83,12.41,45.859,9.607,51.959l.078.175h0c.524,1.144,3.455,7.889,2.862,14.067-.534,5.524,6.739,30.622,9.455,39.737l-1.284.273,4.573,17.292-.98,11.191s-5.553,15.6,7.514,12.547,9.474-15.6,9.474-15.6l.328-25.433s-1.26-.737-2.813-1.443c-1.068-3.035-3.4-10.207-3.4-15.169,0-6.441-4.249-34.25-4.249-34.25v-.2l-.024-.371v-.062c0-.345-.054-.819-.093-1.4v-.031c-.49-7.518-1.961-33.059-.887-46.374a28.055,28.055,0,0,1,2.941-1.845c3.181,8.45,11.381,31.282,10.856,40.861-.652,11.851-.162,2.545,0,1.031.049-.469.083.1.1,1.371v5.013c0,1.031,0,2.174-.034,3.365v.721c0,.727,0,1.469-.034,2.221,0,1.03-.039,2.03-.059,3.066-.049,2.319-.113,4.663-.191,6.858q0,.366-.024.727-.024.721-.054,1.412t-.059,1.35q-.029.654-.064,1.273c-.024.484-.054.948-.078,1.391l-1.774-.268-.377,4.287a48.834,48.834,0,0,0,2.451,20.1c.608,1.762,1.078,3.22,1.181,3.741.328,1.7,0,13.912,0,13.912s1.961,15.937,11.111,12.882c4.117-1.376,6.117-5.56,7.073-9.754a25.347,25.347,0,0,0-1.132-14.567c-1.3-3.432-2.627-8.244-1.691-11.964,1.632-6.441,1.632-15.6,1.632-15.6l-1.01-.149q.377-.754.681-1.546s-.328-23.4,2.612-26.449c1.617-1.68,1.47-5.714.98-9.012a64.789,64.789,0,0,1-.49-14.427,24.008,24.008,0,0,1,.828-5.405c.863-1.793,1.725-19.869-2.093-28.566l.784-.258-.123-.639.123-.041q.864,2.424,1.961,4.746a1.761,1.761,0,0,0,.652.34c10.582-1.953,11.008-12.335,10.42-18,.446.227.691.371.691.371l.98-14.943a22.6,22.6,0,0,0,1.353-8.723C329.87,246.465,324.5,231.028,324.5,231.028ZM312.833,273.5c-.725-6.508-1.73-12.634-1.73-12.634l-4.9-18.313v-6.668l7.773,30.5Z" transform="translate(-224.868 -116.925)"/></g><path class="i" d="M358.817,614.93l-.363,4.189a48.3,48.3,0,0,0,2.377,19.657c.583,1.726,1.039,3.148,1.137,3.658.314,1.659,0,13.588,0,13.588s1.892,15.576,10.719,12.593c3.97-1.34,5.882-5.436,6.823-9.532a25.079,25.079,0,0,0-1.1-14.232c-1.255-3.354-2.539-8.069-1.632-11.691,1.578-6.3,1.578-15.242,1.578-15.242Z" transform="translate(-241.491 -342.435)"/><path class="j" d="M340.09,464.444s12.292,31.483,11.66,43.076-.157,2.484,0,.994c.279-2.654,0,28.855-.946,32.462,0,0,12.925,9.939,17.968-3.313,0,0-.314-22.862,2.519-25.846,1.559-1.638,1.407-5.585.946-8.806a64.134,64.134,0,0,1-.49-14.082,22.371,22.371,0,0,1,.8-5.281c.946-1.989,1.892-24.521-3.784-30.818Z" transform="translate(-232.218 -263.859)"/><path class="k" d="M352.388,541.021c.946-3.643,1.225-35.131.946-32.462-.157,1.489-.632,10.6,0-.994s-11.66-43.076-11.66-43.076l27.5-11.119c-.127-.17-.26-.33-.392-.479l-28.682,11.6s12.292,31.483,11.66,43.076-.157,2.484,0,.994c.279-2.654,0,28.855-.946,32.462,0,0,5.161,3.968,10.234,3.545C356.534,544.21,352.388,541.021,352.388,541.021Z" transform="translate(-232.223 -263.889)"/><path class="i" d="M318.22,670.934l4.411,16.9-.946,10.934s-5.357,15.242,7.249,12.258,9.141-15.242,9.141-15.242l.314-24.851s-5.043-2.983-7.249-2.648S318.22,670.934,318.22,670.934Z" transform="translate(-221.067 -368.286)"/><path class="j" d="M273.85,459.94s14.5,49.373,11.033,56.993c0,0,3.465,7.291,2.838,13.912s10.087,42.082,10.087,42.082l15.763-2.983s-3.784-9.939-3.784-16.236-4.1-33.492-4.1-33.492-3.465-49.708.632-55.01Z" transform="translate(-198.444 -267.306)"/><g class="l" transform="translate(75.406 192.634)"><path d="M336.462,478c-2.612,11.253.274,52.665.274,52.665s4.1,27.17,4.1,33.492c0,4.807,2.2,11.733,3.245,14.742l.853-.16s-3.784-9.939-3.784-16.236-4.1-33.492-4.1-33.492S334.413,491.165,336.462,478Z" transform="translate(-305.216 -468.694)"/><path d="M296.36,570.225l.078.17c.025-.17.049-.35.064-.515C296.46,570,296.413,570.113,296.36,570.225Z" transform="translate(-285.327 -513.232)"/><path d="M305.606,466.834a5,5,0,0,1,.711-1.592l-32.466-5.3s.191.644.52,1.793Z" transform="translate(-273.85 -459.94)"/></g><path class="m" d="M413.25,422.718s4.73,18.55-9.455,21.208a1.692,1.692,0,0,1-.632-.33s-8.2-16.9-1.892-23.527Z" transform="translate(-262.197 -247.979)"/><path class="m" d="M297.887,186s.946,13.912-9.455,20.544,22.056,24.851,22.056,24.851l17.022-28.5s-7.244.984-11.655-12.258Z" transform="translate(-204.831 -134.517)"/><path class="k" d="M278.012,227.78s16.076,35.126,30.574,1.989L330.966,346.4s-34.677,11.269-34.986,16.571S261,349.393,261,349.393s7.563-14.582,5.676-23.527S278.012,227.78,278.012,227.78Z" transform="translate(-191.892 -154.77)"/><path class="n" d="M278.012,226.49s16.076,35.126,30.574,1.989l22.379,116.64s-34.677,11.269-34.986,16.571S261,348.1,261,348.1s7.563-14.582,5.676-23.527S278.012,226.49,278.012,226.49Z" transform="translate(-191.892 -154.144)"/><path class="i" d="M326.951,682.42s-4.1-9.61,5.357-9.61,7.881,8.615,7.881,8.615Z" transform="translate(-225.068 -370.492)"/><path class="i" d="M370.823,633.236s-3.784-10.274,5.676-10.6,4.73,9.275,4.73,9.275Z" transform="translate(-247.506 -346.165)"/><path class="k" d="M355.2,212s9.611,5.153,13.082,4.472S380.888,222.1,380.26,234.7l5.7,18.786a80.346,80.346,0,0,1,3.431,23.3h0s8.195,23.857,3.784,34.461l-.946,14.582s-7.249-4.308-14.817-2.983l1.907-11.908-8.528-33.806L356.6,241Z" transform="translate(-239.922 -147.121)"/><path class="o" d="M355.2,210.73s9.611,5.153,13.082,4.472,12.606,5.632,11.979,18.225l5.7,18.787a80.345,80.345,0,0,1,3.431,23.3h0s8.195,23.857,3.784,34.461l-.946,14.582s-7.249-4.308-14.817-2.983L379.3,309.64l-8.514-33.8-14.17-36.12Z" transform="translate(-239.922 -146.505)"/><path class="k" d="M371.119,262.214v37.444l4.73,17.9S379,337.1,378.055,343.07s-16.076,7.291-20.174,2.319-1.892-47.4-1.892-47.4l-.789-62.115.632-1.989Z" transform="translate(-239.922 -157.727)"/><path class="o" d="M372.439,260.861v37.444l4.73,17.9s3.152,19.549,2.206,25.516-16.076,7.291-20.174,2.319-1.892-47.4-1.892-47.4L356.52,234.5Z" transform="translate(-240.595 -158.027)"/><path class="k" d="M259.38,284.7l10.087,32.977-4.73,14.082s22.379,24.851,36.564,12.923c0,0,1.578-50.7-1.578-62.63s-18.282-52.042-18.282-52.042l-3.132-10.589-16.7,9.939Z" transform="translate(-191.066 -150.717)"/><path class="o" d="M255.77,281.45v32.462s.632,6.961-1.578,11.6,6.935,2.983,6.935,2.983,22.379,24.851,36.564,12.923c0,0,1.578-50.7-1.578-62.63s-18.282-52.042-18.282-52.042l-3.152-10.6-16.7,9.939Z" transform="translate(-188.245 -149.127)"/><path class="k" d="M267.477,204.95s-9.611,7.456-20.644,5.8S229.5,260.454,229.5,260.454s-4.1,26.51,9.141,24.192l29.315-10.274s-6.3-6.961-5.357-15.906l-14.189,5.962.637-28.494Z" transform="translate(-175.524 -143.703)"/><path class="k" d="M230.777,309.509s-4.1,26.51,9.141,24.192l29.315-10.274s-6.3-6.956-5.357-15.906L249.7,313.487Z" transform="translate(-176.177 -193.423)"/><path class="m" d="M297.51,305.981s9.837-13.6,17.081-7.069S300.108,317.4,300.108,317.4Z" transform="translate(-210.508 -188.39)"/><path class="o" d="M267.477,203.66s-9.611,7.456-20.644,5.8S229.5,259.164,229.5,259.164s-4.1,26.51,9.141,24.192l29.315-10.274s-6.3-6.961-5.357-15.906l-14.189,5.967.637-28.5,16.076-13.912Z" transform="translate(-175.524 -143.078)"/><path class="k" d="M328.305,191.9l-17.968-4.637s.936,1.113-.157,5.467c2.892,3.488,6.445,8.121,11.19,8.121a15.185,15.185,0,0,0,9.42-3.282A30.536,30.536,0,0,1,328.305,191.9Z" transform="translate(-216.968 -135.128)"/><ellipse class="m" cx="15.763" cy="16.571" rx="15.763" ry="16.571" transform="translate(88.326 31.918)"/><path class="k" d="M309.96,144.146c3.656-.654,7.675-2.36,8.9-6.039a8.736,8.736,0,0,0-1.093-7.131,19.009,19.009,0,0,0-5.1-5.153,25.891,25.891,0,0,0-10.42-5.029,4.076,4.076,0,0,0-1.99,0,8.1,8.1,0,0,0-1.613.927c-2.593,1.572-5.818.891-8.822.727s-6.607.727-7.553,3.71c-.294.922-.274,1.917-.49,2.865-.49,2.319-2.152,4.122-3.431,6.054s-2.264,4.545-1.186,6.626c.368.706.98,1.355.98,2.159a6.952,6.952,0,0,1-.49,1.654c-.446,1.711.853,3.437,2.353,4.251s3.225,1.067,4.754,1.824a8.827,8.827,0,0,1,4.642,8.11c1.392.17,3.014.258,3.955-.835.422-.489.627-1.144,1.01-1.664a10.838,10.838,0,0,1,1.882-1.628c3.3-2.849.956-6.786,2.823-9.857.98-1.582,2.539-1.1,4.117-1.072a34.636,34.636,0,0,0,6.774-.5Z" transform="translate(-199.897 -102.85)"/><path class="p" d="M309.32,143.506c3.656-.654,7.675-2.36,8.9-6.039a8.736,8.736,0,0,0-1.093-7.131,19.01,19.01,0,0,0-5.1-5.153,25.891,25.891,0,0,0-10.42-5.029,4.076,4.076,0,0,0-1.99,0,8.1,8.1,0,0,0-1.613.927c-2.593,1.572-5.818.891-8.822.727s-6.607.727-7.553,3.71c-.294.922-.274,1.917-.49,2.865-.49,2.319-2.152,4.122-3.431,6.054s-2.264,4.545-1.186,6.626c.368.706.98,1.355.98,2.159a6.953,6.953,0,0,1-.49,1.654c-.446,1.711.853,3.437,2.353,4.251s3.225,1.067,4.754,1.824a8.826,8.826,0,0,1,4.656,8.131c1.392.17,3.014.258,3.955-.835.421-.49.627-1.144,1.01-1.664a10.839,10.839,0,0,1,1.882-1.628c3.3-2.849.956-6.786,2.823-9.857.98-1.582,2.539-1.1,4.117-1.072a34.637,34.637,0,0,0,6.759-.52Z" transform="translate(-199.57 -102.54)"/><path class="k" d="M382.85,273.76s3.465,18.89,1.892,26.181a25.493,25.493,0,0,0,.412,12.84" transform="translate(-254.02 -177.058)"/><path class="k" d="M268.092,289.19s-1.51,12.593,1,15.242" transform="translate(-195.279 -184.537)"/><path d="M447.365,588.926a.774.774,0,1,0-.735-.773A.755.755,0,0,0,447.365,588.926Z" transform="translate(-286.539 -329.081)"/><g class="g" transform="translate(119.16 61.171)"><path class="q" d="M631.163,313.435v-.428L497.435,204.9a.471.471,0,0,0-.583,0L363.12,313.007V480.571h.255v.268H631.422V313.275Z" transform="translate(-363.12 -204.804)"/></g><path class="r" d="M511.369,394.242H252.58V232.449l129.395-104.6,129.395,104.6Z" transform="translate(-128.783 -61.976)"/><path class="s" d="M511.744,393.669H271.58V243.521L391.662,146.45l120.082,97.071Z" transform="translate(-138.471 -70.992)"/><path class="b" d="M0,0,151.95-1.905l-2.423,201.864-151.95,1.905Z" transform="translate(147.429 113.59) rotate(-14.69)"/><rect class="a" width="151.45" height="202.499" transform="translate(178.201 102.973)"/><path class="t" d="M255.08,331.35l129.395,80.9-129.395,80.9Z" transform="translate(-130.058 -160.62)"/><path class="r" d="M253.08,331.35l129.395,80.9-129.395,80.9Z" transform="translate(-129.038 -160.62)"/><path class="t" d="M644.475,331.35l-129.395,80.9,129.395,80.9Z" transform="translate(-262.624 -160.62)"/><path class="r" d="M646.474,331.35l-129.394,80.9,129.394,80.9Z" transform="translate(-263.644 -160.62)"/><path class="t" d="M253.08,540.495,382.475,434.35,511.869,540.495Z" transform="translate(-129.038 -210.548)"/><path class="r" d="M253.08,545.494,382.475,439.35,511.869,545.494Z" transform="translate(-129.038 -212.971)"/><path class="c" d="M424.069,685.638s-6.5-23.187,1.22-40.263a38.328,38.328,0,0,0,2.818-22.981,63.986,63.986,0,0,0-3.093-10.785" transform="translate(-273.732 -340.826)"/><path class="d" d="M428.253,585.823c0,2.844-4.9,11.083-4.9,11.083s-4.9-8.244-4.9-11.083a4.907,4.907,0,1,1,9.8,0Z" transform="translate(-272.171 -325.828)"/><path class="b" d="M444.762,613.935c-1.47,2.386-9.842,6.508-9.842,6.508s.152-9.718,1.622-12.1a4.751,4.751,0,0,1,6.653-1.33A5.311,5.311,0,0,1,444.762,613.935Z" transform="translate(-280.569 -338.194)"/><path class="b" d="M442.151,664.18c-2.416,1.278-11.621.4-11.621.4s4.8-8.306,7.21-9.584a4.7,4.7,0,0,1,5.02.147,5.238,5.238,0,0,1,2.262,4.714,5.152,5.152,0,0,1-2.871,4.332Z" transform="translate(-278.33 -361.537)"/><path class="d" d="M432.951,704.23c-2.176,1.69-11.391,2.453-11.391,2.453s3.392-9.038,5.568-10.728a4.748,4.748,0,0,1,6.661,1.222A5.336,5.336,0,0,1,432.951,704.23Z" transform="translate(-273.757 -381.291)"/><path class="b" d="M412.532,626.763c1.961,1.979,10.974,4.034,10.974,4.034s-2.211-9.434-4.151-11.413a4.731,4.731,0,0,0-6.762.27,5.346,5.346,0,0,0-.061,7.113Z" transform="translate(-268.478 -343.968)"/><path class="d" d="M400.84,672.056c2.416,1.278,11.621.4,11.621.4s-4.8-8.306-7.21-9.584a4.8,4.8,0,0,0-6.394,2.375,5.291,5.291,0,0,0,1.983,6.817Z" transform="translate(-261.913 -365.451)"/><path class="b" d="M397.181,718.55c2.176,1.69,11.391,2.453,11.391,2.453s-3.392-9.038-5.568-10.728a4.711,4.711,0,0,0-4.985-.769,5.134,5.134,0,0,0-3,4.258A5.252,5.252,0,0,0,397.181,718.55Z" transform="translate(-260.215 -388.088)"/><rect class="u" width="60.776" height="5.153" transform="translate(187.023 112.248)"/><rect class="u" width="131.355" height="5.153" transform="translate(187.023 132.858)"/><rect class="u" width="131.355" height="5.153" transform="translate(187.023 146.255)"/><rect class="v" width="131.355" height="5.153" transform="translate(187.023 159.652)"/><rect class="v" width="131.355" height="5.153" transform="translate(187.023 173.049)"/><rect class="w" width="74.99" height="5.153" transform="translate(187.023 186.446)"/><rect class="w" width="102.437" height="5.153" transform="translate(187.023 199.843)"/></g></svg>